<?xml version="1.0" standalone="no"?>
<!DOCTYPE svg PUBLIC "-//W3C//DTD SVG 20010904//EN"
 "http://www.w3.org/TR/2001/REC-SVG-20010904/DTD/svg10.dtd">
<svg version="1.0" xmlns="http://www.w3.org/2000/svg"
 width="41.000000pt" height="37.000000pt" viewBox="0 0 41.000000 37.000000"
 preserveAspectRatio="xMidYMid meet">
<metadata>
Created by potrace 1.10, written by Peter Selinger 2001-2011
</metadata>
<g transform="translate(0.000000,37.000000) scale(0.100000,-0.100000)"
fill="#000000" stroke="none">
<path d="M50 267 c0 -48 4 -57 35 -87 l35 -34 30 29 30 29 -57 58 c-32 32 -61
58 -65 58 -4 0 -8 -24 -8 -53z"/>
<path d="M245 220 l-99 -100 29 -30 29 -30 78 77 c78 77 78 78 78 130 0 29 -3
53 -8 53 -4 0 -52 -45 -107 -100z"/>
<path d="M52 103 c3 -46 4 -48 36 -51 65 -6 70 5 22 53 -24 25 -48 45 -53 45
-4 0 -7 -21 -5 -47z"/>
<path d="M300 105 c-48 -48 -43 -59 22 -53 32 3 33 5 36 51 2 26 -1 47 -5 47
-5 0 -29 -20 -53 -45z"/>
</g>
</svg>
